<svg version="1.1" id="Layer_1" xmlns="http://www.w3.org/2000/svg" xmlns:xlink="http://www.w3.org/1999/xlink" x="0px" y="0px"
	 width="100%" viewBox="0 0 512 512" enable-background="new 0 0 512 512" xml:space="preserve">
<path fill="#FFFFFF" opacity="1.000000" stroke="none"
	d="
M239.000000,513.000000 
	C159.702209,513.000000 80.404434,513.000000 1.053325,513.000000 
	C1.053325,342.445374 1.053325,171.890732 1.053325,1.000000 
	C75.021095,1.000000 149.042694,1.000000 223.873596,1.329370 
	C223.514679,2.105484 222.381592,2.753255 221.172256,2.964437 
	C215.723007,3.916022 210.215668,4.562087 204.795883,5.650126 
	C188.116379,8.998585 171.980545,13.929590 156.309479,20.756107 
	C137.549698,28.928104 120.194794,39.225651 104.928421,52.725494 
	C87.630196,68.022079 73.426933,85.790352 64.231636,107.288483 
	C58.963264,119.605637 55.327938,132.426208 54.256287,145.618118 
	C53.351791,156.752396 54.166710,168.108887 55.110325,179.291946 
	C56.622372,197.211716 63.563477,213.571548 72.512383,228.820419 
	C83.133553,246.918823 97.499557,261.978821 114.223198,274.722015 
	C135.979126,291.299713 160.227036,303.090546 186.602219,309.740753 
	C203.709549,314.054199 221.412994,316.003387 238.914062,319.476440 
	C238.936874,339.249115 238.894974,358.557281 238.556091,377.674683 
	C236.396896,369.336517 232.137772,362.214874 226.131317,356.899872 
	C217.345322,349.125366 206.946930,344.624054 194.595276,344.894745 
	C167.643936,345.485352 146.105850,368.006866 151.386795,398.116577 
	C155.082428,419.187469 173.297424,434.237823 195.399918,434.032410 
	C209.896576,433.897644 224.396133,434.073822 238.939835,434.570496 
	C238.990189,461.020142 238.995102,487.010071 239.000000,513.000000 
z"/>
<path fill="#FFFFFF" opacity="1.000000" stroke="none"
	d="
M290.000000,1.000003 
	C364.300018,1.000000 438.600067,1.000000 512.950073,1.000000 
	C512.950073,171.556885 512.950073,342.113800 512.950073,513.000000 
	C433.978882,513.000000 354.957275,513.000000 275.467834,512.531372 
	C275.033569,500.743866 275.067139,489.425079 275.561462,478.067871 
	C290.516327,478.019684 305.010468,478.034943 319.504486,477.994598 
	C346.065735,477.920715 368.380310,454.710297 362.549316,424.853027 
	C356.557159,394.170441 325.052795,380.755981 298.547821,393.855316 
	C286.377258,399.870239 278.864929,409.927795 275.059479,422.418274 
	C275.009674,387.695251 275.004700,353.431305 275.423279,319.093140 
	C277.424683,318.679810 278.987335,318.215454 280.582825,318.022308 
	C289.339142,316.962158 298.234772,316.605164 306.840210,314.830963 
	C331.313080,309.785309 354.898590,302.145233 376.800629,289.713104 
	C400.932526,276.015228 421.492371,258.506561 437.121216,235.406418 
	C446.088440,222.152451 452.730896,207.777313 456.744202,192.383514 
	C460.289825,178.783569 461.113190,164.727692 459.914856,150.700409 
	C459.236725,142.762390 458.357971,134.732330 456.422211,127.032181 
	C451.390594,107.017349 442.012512,89.125183 428.776459,73.197548 
	C413.836243,55.219143 396.201691,40.489388 375.715363,29.398083 
	C349.525085,15.218678 321.606750,6.142420 291.887238,2.916931 
	C291.196960,2.842010 290.626404,1.663667 290.000000,1.000003 
z"/>
<path fill="#F0C419" opacity="1.000000" stroke="none" 
	d="
M289.531342,1.000003 
	C290.626404,1.663667 291.196960,2.842010 291.887238,2.916931 
	C321.606750,6.142420 349.525085,15.218678 375.715363,29.398083 
	C396.201691,40.489388 413.836243,55.219143 428.776459,73.197548 
	C442.012512,89.125183 451.390594,107.017349 456.422211,127.032181 
	C458.357971,134.732330 459.236725,142.762390 459.914856,150.700409 
	C461.113190,164.727692 460.289825,178.783569 456.744202,192.383514 
	C452.730896,207.777313 446.088440,222.152451 437.121216,235.406418 
	C421.492371,258.506561 400.932526,276.015228 376.800629,289.713104 
	C354.898590,302.145233 331.313080,309.785309 306.840210,314.830963 
	C298.234772,316.605164 289.339142,316.962158 280.582825,318.022308 
	C278.987335,318.215454 277.424683,318.679810 275.081696,318.923218 
	C269.293121,318.884949 264.269836,318.970123 259.246307,318.993195 
	C252.447433,319.024414 245.648331,319.007965 238.849335,319.011932 
	C221.412994,316.003387 203.709549,314.054199 186.602219,309.740753 
	C160.227036,303.090546 135.979126,291.299713 114.223198,274.722015 
	C97.499557,261.978821 83.133553,246.918823 72.512383,228.820419 
	C63.563477,213.571548 56.622372,197.211716 55.110325,179.291946 
	C54.166710,168.108887 53.351791,156.752396 54.256287,145.618118 
	C55.327938,132.426208 58.963264,119.605637 64.231636,107.288483 
	C73.426933,85.790352 87.630196,68.022079 104.928421,52.725494 
	C120.194794,39.225651 137.549698,28.928104 156.309479,20.756107 
	C171.980545,13.929590 188.116379,8.998585 204.795883,5.650126 
	C210.215668,4.562087 215.723007,3.916022 221.172256,2.964437 
	C222.381592,2.753255 223.514679,2.105484 224.341431,1.329370 
	C245.687561,1.000000 267.375122,1.000000 289.531342,1.000003 
M159.043793,225.482635 
	C185.051895,245.364304 214.893845,254.683426 247.139816,256.846588 
	C267.404144,258.205963 287.386841,255.754517 306.825104,249.786118 
	C334.889160,241.169235 359.426086,227.076523 376.765289,202.624817 
	C389.661316,184.438889 394.404114,164.306030 388.517822,142.476364 
	C383.510651,123.907074 371.996521,109.546051 356.955444,98.078278 
	C329.765594,77.347969 298.383453,68.243584 264.701141,67.230408 
	C251.010086,66.818573 237.078659,67.976151 223.540985,70.172409 
	C191.645752,75.346893 163.152603,88.011513 141.605881,113.008736 
	C123.196838,134.365799 117.644249,158.602264 128.014206,185.550934 
	C134.238251,201.725525 145.178955,214.303543 159.043793,225.482635 
z"/>
<path fill="#7ED09E" opacity="1.000000" stroke="none" 
	d="
M238.914062,319.476440 
	C245.648331,319.007965 252.447433,319.024414 259.246307,318.993195 
	C264.269836,318.970123 269.293121,318.884949 274.658081,318.997375 
	C275.004700,353.431305 275.009674,387.695251 275.027161,422.893738 
	C275.060028,441.920929 275.080353,460.013580 275.100708,478.106262 
	C275.067139,489.425079 275.033569,500.743866 275.000000,512.531372 
	C263.312439,513.000000 251.624878,513.000000 239.468658,513.000000 
	C238.995102,487.010071 238.990189,461.020142 238.987152,434.096741 
	C238.943710,414.730652 238.898376,396.298035 238.853058,377.865417 
	C238.894974,358.557281 238.936874,339.249115 238.914062,319.476440 
z"/>
<path fill="#4C8056" opacity="1.000000" stroke="none" 
	d="
M238.556061,377.674683 
	C238.898376,396.298035 238.943710,414.730652 238.941711,433.637024 
	C224.396133,434.073822 209.896576,433.897644 195.399918,434.032410 
	C173.297424,434.237823 155.082428,419.187469 151.386795,398.116577 
	C146.105850,368.006866 167.643936,345.485352 194.595276,344.894745 
	C206.946930,344.624054 217.345322,349.125366 226.131317,356.899872 
	C232.137772,362.214874 236.396896,369.336517 238.556061,377.674683 
z"/>
<path fill="#4C8056" opacity="1.000000" stroke="none" 
	d="
M275.561462,478.067871 
	C275.080353,460.013580 275.060028,441.920929 275.071991,423.352783 
	C278.864929,409.927795 286.377258,399.870239 298.547821,393.855316 
	C325.052795,380.755981 356.557159,394.170441 362.549316,424.853027 
	C368.380310,454.710297 346.065735,477.920715 319.504486,477.994598 
	C305.010468,478.034943 290.516327,478.019684 275.561462,478.067871 
z"/>
<path fill="#F18D46" opacity="1.000000" stroke="none" 
	d="
M158.777939,225.245483 
	C145.178955,214.303543 134.238251,201.725525 128.014206,185.550934 
	C117.644249,158.602264 123.196838,134.365799 141.605881,113.008736 
	C163.152603,88.011513 191.645752,75.346893 223.540985,70.172409 
	C237.078659,67.976151 251.010086,66.818573 264.701141,67.230408 
	C298.383453,68.243584 329.765594,77.347969 356.955444,98.078278 
	C371.996521,109.546051 383.510651,123.907074 388.517822,142.476364 
	C394.404114,164.306030 389.661316,184.438889 376.765289,202.624817 
	C359.426086,227.076523 334.889160,241.169235 306.825104,249.786118 
	C287.386841,255.754517 267.404144,258.205963 247.139816,256.846588 
	C214.893845,254.683426 185.051895,245.364304 158.777939,225.245483 
M301.079132,164.325531 
	C301.074036,154.168518 301.171539,144.009979 301.019073,133.855179 
	C300.946503,129.019547 297.530853,125.344841 293.358307,124.998627 
	C288.220703,124.572319 284.064545,126.913643 283.945862,131.456970 
	C283.602966,144.585022 283.483643,157.743820 284.030792,170.859085 
	C284.282318,176.888687 290.414032,179.363251 295.811920,176.600739 
	C300.574493,174.163361 301.250519,169.939835 301.079132,164.325531 
M215.576111,175.001892 
	C218.402740,178.121948 221.861679,177.414978 225.162689,176.297318 
	C228.939926,175.018387 230.424774,171.791275 230.466522,168.103073 
	C230.594696,156.777161 230.687241,145.445587 230.459137,134.122971 
	C230.330505,127.738121 226.869873,124.843750 220.566391,124.994164 
	C215.553223,125.113785 212.979355,128.208588 212.943695,134.483826 
	C212.880295,145.644669 212.817947,156.808121 213.021500,167.965622 
	C213.060913,170.125565 214.318237,172.263275 215.576111,175.001892 
z"/>
<path fill="#FFFFFF" opacity="1.000000" stroke="none" 
	d="
M301.079071,164.796875 
	C301.250519,169.939835 300.574493,174.163361 295.811920,176.600739 
	C290.414032,179.363251 284.282318,176.888687 284.030792,170.859085 
	C283.483643,157.743820 283.602966,144.585022 283.945862,131.456970 
	C284.064545,126.913643 288.220703,124.572319 293.358307,124.998627 
	C297.530853,125.344841 300.946503,129.019547 301.019073,133.855179 
	C301.171539,144.009979 301.074036,154.168518 301.079071,164.796875 
z"/>
<path fill="#FFFFFF" opacity="1.000000" stroke="none" 
	d="
M215.294922,174.706573 
	C214.318237,172.263275 213.060913,170.125565 213.021500,167.965622 
	C212.817947,156.808121 212.880295,145.644669 212.943695,134.483826 
	C212.979355,128.208588 215.553223,125.113785 220.566391,124.994164 
	C226.869873,124.843750 230.330505,127.738121 230.459137,134.122971 
	C230.687241,145.445587 230.594696,156.777161 230.466522,168.103073 
	C230.424774,171.791275 228.939926,175.018387 225.162689,176.297318 
	C221.861679,177.414978 218.402740,178.121948 215.294922,174.706573 
z"/>
</svg>