<svg version="1.1" id="Layer_1" xmlns="http://www.w3.org/2000/svg" xmlns:xlink="http://www.w3.org/1999/xlink" x="0px" y="0px"
	 width="100%" viewBox="0 0 512 512" enable-background="new 0 0 512 512" xml:space="preserve">
<path fill="#FFFFFF" opacity="1.000000" stroke="none" 
	d="
M332.000000,513.000000 
	C283.312439,513.000000 234.624878,513.000000 185.468719,512.531372 
	C185.032425,503.725342 185.064728,495.387970 185.552521,487.029419 
	C201.161758,488.397278 213.908798,483.235107 221.144470,469.958923 
	C230.417740,452.944122 238.171082,435.075043 246.049347,417.338654 
	C249.147827,410.363007 245.778976,401.998718 239.717880,397.926910 
	C230.959351,392.043060 218.010437,394.357788 212.948074,404.880219 
	C203.898102,423.691193 194.435486,442.303619 185.087433,460.533234 
	C185.034058,420.398041 185.038620,380.728729 185.397232,341.043823 
	C191.540970,345.234100 197.457077,349.280334 203.061203,353.720367 
	C205.471893,355.630280 206.938126,355.009308 208.404968,353.030457 
	C211.262024,349.176208 214.008118,345.239655 216.936630,341.146423 
	C215.377304,339.944183 214.078857,338.961151 212.799591,337.953735 
	C206.536880,333.021851 200.279282,328.083466 194.422501,323.085815 
	C205.614517,321.146637 214.722351,316.283569 220.509659,306.814514 
	C227.550278,295.294922 233.994522,283.411072 240.711029,271.692963 
	C244.482208,265.113495 247.320129,258.663696 244.172760,250.648483 
	C241.837540,244.701508 232.148666,239.064911 225.156830,240.622833 
	C217.310837,242.371109 213.625275,247.591827 210.213699,253.540237 
	C204.653473,263.235077 199.423355,273.119263 194.031586,282.459686 
	C194.006180,271.684875 194.171310,261.370056 193.934937,251.064407 
	C193.800217,245.190933 191.426514,240.283081 185.900314,236.965500 
	C185.981064,222.018799 186.004120,207.579025 186.481506,193.080872 
	C200.726303,193.736069 211.962723,188.895584 219.952499,177.451950 
	C222.646698,173.593109 224.877533,169.399933 227.183548,165.283066 
	C232.838089,155.188202 238.538452,145.115692 243.985168,134.908691 
	C249.534088,124.510185 241.239853,112.608307 232.538849,110.722534 
	C224.299652,108.936844 215.235291,113.254028 211.210815,121.253044 
	C205.817078,131.973618 199.802216,142.381729 194.031586,152.459991 
	C194.006104,141.925522 194.021545,131.854996 193.993347,121.784584 
	C193.975586,115.438049 191.363419,110.512535 185.895447,106.759682 
	C185.994614,100.547318 186.029541,94.819153 186.514801,89.052895 
	C201.901581,89.466003 214.137604,83.984924 221.390045,70.790207 
	C226.532272,61.434715 230.128616,51.187645 233.950699,41.161556 
	C237.068436,32.983158 233.002686,23.696522 225.221542,20.085711 
	C216.776413,16.166779 206.907990,18.999134 202.979324,26.277710 
	C199.849899,32.075523 197.015930,38.032825 194.030060,43.456146 
	C194.006226,35.683510 193.637329,28.351309 194.090118,21.070208 
	C194.692200,11.388522 190.858978,4.782199 182.000000,1.000000 
	C292.285339,1.000000 402.570679,1.000000 512.927979,1.000000 
	C512.927979,171.544403 512.927979,342.088867 512.927979,513.000000 
	C458.979645,513.000000 404.958496,513.000000 350.468658,512.531372 
	C350.051880,503.709351 350.103760,495.355957 350.610535,487.001740 
	C353.395813,487.000732 355.729980,486.912781 358.055817,487.014709 
	C371.927338,487.622589 382.309509,481.128967 389.259857,469.903107 
	C394.211731,461.905090 397.844391,452.974701 401.117249,444.110199 
	C402.414124,440.597626 402.106995,435.800476 400.837616,432.182037 
	C398.461029,425.407715 393.072510,421.430267 385.649323,421.029083 
	C377.636475,420.595947 371.883698,424.145386 368.269135,431.326019 
	C362.607910,442.572449 356.863342,453.776947 351.092834,464.533600 
	C351.035126,437.404114 351.038635,410.740204 351.368408,384.156433 
	C358.136078,389.209167 364.577484,394.181732 371.220062,399.309601 
	C374.942688,394.389069 378.461395,389.738098 382.269501,384.704559 
	C380.742645,383.422302 379.304901,382.154022 377.804230,380.965240 
	C371.552979,376.013062 365.282776,371.084808 359.436035,366.086182 
	C371.031250,365.225616 379.322479,359.379150 385.119171,350.316925 
	C391.780457,339.902985 397.920898,329.134460 403.838013,318.274994 
	C406.815277,312.810944 410.675140,307.673920 410.141876,300.611542 
	C409.528198,292.483765 405.574158,286.542755 397.800507,284.334290 
	C390.768524,282.336517 381.973114,285.480560 378.214752,291.516052 
	C376.325409,294.550171 374.755463,297.782104 373.013947,300.909485 
	C368.368378,309.251923 363.708160,317.586212 359.031372,325.459900 
	C359.005951,316.061340 358.714996,307.114532 359.089569,298.195648 
	C359.398743,290.833801 357.098022,285.068237 351.016418,280.404480 
	C351.004517,277.967560 351.048340,275.987640 350.992188,274.010590 
	C350.717804,264.348938 350.416779,254.688080 350.579163,245.016022 
	C353.531921,245.003296 356.047150,245.186646 358.526611,244.966888 
	C368.104462,244.117981 377.173248,240.593140 382.305420,232.739960 
	C392.040283,217.843842 400.497284,202.090790 409.057739,186.459641 
	C412.518219,180.140854 409.306732,169.898483 404.042297,165.957275 
	C394.288879,158.655396 381.576141,162.526230 376.414917,172.965195 
	C371.160583,183.592514 365.288971,193.914627 359.000000,205.653961 
	C359.000000,194.061951 359.172577,183.959641 358.934692,173.867020 
	C358.794067,167.899765 356.639282,162.726044 350.963867,159.285736 
	C351.022339,152.910492 351.058838,146.981140 351.547638,141.030029 
	C354.163483,141.005447 356.351929,141.214508 358.486145,140.962952 
	C367.527740,139.897202 376.526886,136.827133 381.455048,129.465973 
	C391.485626,114.483368 400.472534,98.724617 408.824066,82.729393 
	C412.735962,75.237068 410.013489,63.507092 400.252808,59.622509 
	C390.534882,55.754963 381.636475,59.204472 376.267609,69.293793 
	C370.628967,79.890099 364.799805,90.385017 359.031342,100.460236 
	C359.005707,89.851677 359.458008,79.681648 358.892487,69.568535 
	C358.050781,54.515816 345.340027,50.018356 333.891754,54.217960 
	C326.167603,57.051434 323.196777,64.062149 323.045837,71.995285 
	C322.843384,82.634888 322.964081,93.280640 322.618164,103.812584 
	C315.805115,91.631859 309.373718,79.533012 302.817139,67.502388 
	C297.934113,58.542500 286.720428,55.441875 278.312561,60.244404 
	C267.750793,66.277206 268.579926,79.117203 272.576080,86.059425 
	C276.398987,92.700645 280.052490,99.444061 284.036255,105.986809 
	C289.373291,114.752090 293.078583,124.652481 301.114319,131.584717 
	C310.322418,139.528381 320.836884,142.912262 332.977112,140.586731 
	C332.999084,146.964615 333.007690,152.883835 332.670593,158.891312 
	C325.702484,162.797577 323.162384,168.923279 323.041168,176.157379 
	C322.863800,186.742523 322.965424,197.332352 322.611816,207.831635 
	C315.856354,195.859161 309.056152,184.160309 303.161163,172.021835 
	C299.632019,164.754898 288.978027,158.664780 278.547638,164.368591 
	C270.916473,168.541687 266.572083,177.799622 271.818390,188.152512 
	C278.503021,201.343658 285.630676,214.391998 293.700104,226.763062 
	C297.388275,232.417343 303.388336,236.870544 309.056610,240.846710 
	C315.775787,245.560043 323.950195,245.286804 331.923340,245.485809 
	C331.982849,249.087387 331.913879,252.226044 332.015015,255.359192 
	C332.279327,263.546326 332.618073,271.731110 332.615051,280.061462 
	C325.255920,284.061188 323.230286,290.670929 323.059479,297.972046 
	C322.810486,308.617859 322.963928,319.273102 322.614990,329.808685 
	C315.848541,317.427490 309.581909,305.069214 302.918701,292.928558 
	C298.374542,284.648865 286.587128,281.324799 278.937531,285.583466 
	C270.512451,290.273834 267.158234,300.908691 271.963348,309.730438 
	C278.349854,321.455444 284.522980,333.322479 291.515137,344.680756 
	C294.949066,350.258911 299.285309,355.884857 304.558167,359.559082 
	C309.896576,363.278931 316.894958,364.616455 323.011841,367.310242 
	C316.486572,372.432800 310.192902,377.350281 303.705444,381.997223 
	C301.252258,383.754456 301.045532,385.176971 302.894318,387.441376 
	C305.963837,391.200897 308.852173,395.108398 311.818085,398.955200 
	C318.604736,394.271088 325.278900,389.664612 331.971313,385.522827 
	C331.941650,410.991577 331.893707,435.995605 331.546997,460.824402 
	C325.670715,450.091583 320.044464,439.559479 314.532684,428.967773 
	C310.745392,421.690002 300.883698,419.749390 293.875214,421.547791 
	C287.101196,423.286011 280.707245,431.583191 282.112030,438.726044 
	C283.000580,443.244019 284.458527,447.817902 286.577911,451.889465 
	C290.492554,459.409729 294.359100,467.146149 299.555817,473.763672 
	C307.604889,484.013519 318.939453,488.009247 331.967102,487.560394 
	C331.991974,496.348297 331.996002,504.674133 332.000000,513.000000 
z"/>
<path fill="#FFFFFF" opacity="1.000000" stroke="none" 
	d="
M167.000000,513.000000 
	C111.695259,513.000000 56.390514,513.000000 1.042887,513.000000 
	C1.042887,342.450134 1.042887,171.900223 1.042887,1.000000 
	C57.020409,1.000000 113.041542,1.000000 169.403580,1.322534 
	C168.084290,2.675125 166.340729,3.593143 164.778778,4.755226 
	C158.967926,9.078429 158.357574,15.611942 158.083420,21.996338 
	C157.738022,30.039959 158.000137,38.109665 158.000137,47.583477 
	C154.410675,40.183010 151.549744,34.028149 148.462357,27.989054 
	C145.167770,21.544636 139.312820,17.880619 132.525284,18.228054 
	C116.754478,19.035320 111.707283,34.042042 117.003899,44.251156 
	C118.646744,47.417709 119.503502,50.990143 121.126350,54.169415 
	C124.962509,61.684731 128.143951,69.768700 133.227798,76.359520 
	C141.525375,87.116714 153.702484,89.891167 166.903168,89.461449 
	C166.969330,95.571114 166.972153,101.216034 166.668091,107.011383 
	C159.566437,112.136772 158.089569,119.367218 158.017258,127.123070 
	C157.927780,136.721268 157.965775,146.320648 157.619736,155.809509 
	C155.073196,151.533447 152.882446,147.352859 150.632370,143.204453 
	C146.126389,134.896912 141.673401,126.558884 137.038025,118.323784 
	C132.726288,110.663673 122.339043,107.615761 113.914970,112.073532 
	C105.489563,116.532005 102.376266,126.890221 106.909615,135.427673 
	C113.550529,147.934174 120.186409,160.463989 127.453705,172.607269 
	C130.425125,177.572372 134.546890,182.148941 139.015411,185.852402 
	C146.990875,192.462357 156.773132,193.714996 166.911575,193.472076 
	C167.033401,208.328094 167.099304,222.718918 166.970505,237.395508 
	C159.034241,241.521637 158.366180,248.898087 158.090790,256.093781 
	C157.710709,266.024506 157.963745,275.979492 157.617737,285.812744 
	C150.816895,273.650116 144.132538,261.705902 137.950409,249.507187 
	C134.260712,242.226562 123.015846,237.080353 113.556541,242.767044 
	C105.352715,247.698990 102.157494,258.470734 107.048500,267.156769 
	C113.678215,278.930603 120.319466,290.699738 127.126114,302.371582 
	C134.242096,314.573822 144.429535,322.251953 158.849640,323.455444 
	C151.161499,329.407501 143.603363,335.050995 135.612900,341.017273 
	C138.697144,345.151123 141.671127,349.200409 144.717606,353.194427 
	C146.312271,355.285095 147.802658,355.402740 150.079285,353.571716 
	C155.531799,349.186584 161.307953,345.203857 166.971527,341.523315 
	C166.941925,382.656769 166.894241,423.325592 166.548523,463.822144 
	C156.735611,444.204681 147.296082,424.722015 137.666107,405.333954 
	C134.163208,398.281586 128.384567,394.393921 120.265442,395.037109 
	C112.768097,395.631104 107.176971,399.069458 104.812057,406.612000 
	C103.056046,412.212585 103.852303,417.548187 106.345695,422.822632 
	C113.131485,437.177124 119.560432,451.704712 126.574661,465.945068 
	C130.386276,473.683441 136.061142,479.760803 144.143021,483.790619 
	C151.557556,487.487671 159.187546,486.828278 166.926849,487.497284 
	C166.982117,496.307861 166.991043,504.653931 167.000000,513.000000 
z"/>
<path fill="#9F33D4" opacity="1.000000" stroke="none" 
	d="
M166.839813,88.996712 
	C153.702484,89.891167 141.525375,87.116714 133.227798,76.359520 
	C128.143951,69.768700 124.962509,61.684731 121.126350,54.169415 
	C119.503502,50.990143 118.646744,47.417709 117.003899,44.251156 
	C111.707283,34.042042 116.754478,19.035320 132.525284,18.228054 
	C139.312820,17.880619 145.167770,21.544636 148.462357,27.989054 
	C151.549744,34.028149 154.410675,40.183010 158.000137,47.583477 
	C158.000137,38.109665 157.738022,30.039959 158.083420,21.996338 
	C158.357574,15.611942 158.967926,9.078429 164.778778,4.755226 
	C166.340729,3.593143 168.084290,2.675125 169.872238,1.322534 
	C173.692902,1.000000 177.385818,1.000000 181.539368,1.000000 
	C190.858978,4.782199 194.692200,11.388522 194.090118,21.070208 
	C193.637329,28.351309 194.006226,35.683510 194.008362,43.840904 
	C193.455688,46.236053 193.007294,47.829697 192.335983,49.323143 
	C186.901810,61.412285 181.425812,73.482620 175.582611,85.665375 
	C172.415039,86.846939 169.627426,87.921829 166.839813,88.996712 
z"/>
<path fill="#B6B95F" opacity="1.000000" stroke="none" 
	d="
M332.467957,513.000000 
	C331.996002,504.674133 331.991974,496.348297 332.254578,487.325989 
	C334.679962,486.012451 336.838745,485.395355 339.334778,484.742523 
	C340.484100,483.803284 341.296234,482.899780 342.375061,482.005890 
	C342.819366,482.026001 342.996979,482.036438 343.134399,482.409485 
	C345.448059,484.182251 347.801819,485.592407 350.155609,487.002563 
	C350.103760,495.355957 350.051880,503.709351 350.000000,512.531372 
	C344.311951,513.000000 338.623932,513.000000 332.467957,513.000000 
z"/>
<path fill="#B6B95F" opacity="1.000000" stroke="none" 
	d="
M167.467926,513.000000 
	C166.991043,504.653931 166.982117,496.307861 167.155945,487.208069 
	C170.181595,485.501373 173.024475,484.548401 176.211029,483.784729 
	C179.402130,484.999573 182.249573,486.025085 185.097015,487.050598 
	C185.064728,495.387970 185.032425,503.725342 185.000061,512.531372 
	C179.311966,513.000000 173.623917,513.000000 167.467926,513.000000 
z"/>
<path fill="#6A34BA" opacity="1.000000" stroke="none" 
	d="
M158.979660,323.146851 
	C144.429535,322.251953 134.242096,314.573822 127.126114,302.371582 
	C120.319466,290.699738 113.678215,278.930603 107.048500,267.156769 
	C102.157494,258.470734 105.352715,247.698990 113.556541,242.767044 
	C123.015846,237.080353 134.260712,242.226562 137.950409,249.507187 
	C144.132538,261.705902 150.816895,273.650116 157.668213,286.186188 
	C163.566711,297.441650 169.086899,308.212311 174.607071,318.983002 
	C175.145966,318.881622 175.684860,318.780243 176.223740,318.678894 
	C182.068939,307.580566 187.928024,296.489471 193.725708,285.366394 
	C194.082840,284.681244 193.955719,283.743652 194.053925,282.923523 
	C199.423355,273.119263 204.653473,263.235077 210.213699,253.540237 
	C213.625275,247.591827 217.310837,242.371109 225.156830,240.622833 
	C232.148666,239.064911 241.837540,244.701508 244.172760,250.648483 
	C247.320129,258.663696 244.482208,265.113495 240.711029,271.692963 
	C233.994522,283.411072 227.550278,295.294922 220.509659,306.814514 
	C214.722351,316.283569 205.614517,321.146637 193.981171,323.028442 
	C184.194092,323.492096 175.505798,317.995209 166.338043,322.071838 
	C164.157135,323.041626 161.446594,322.820312 158.979660,323.146851 
z"/>
<path fill="#6A34BA" opacity="1.000000" stroke="none" 
	d="
M359.053772,325.923737 
	C363.708160,317.586212 368.368378,309.251923 373.013947,300.909485 
	C374.755463,297.782104 376.325409,294.550171 378.214752,291.516052 
	C381.973114,285.480560 390.768524,282.336517 397.800507,284.334290 
	C405.574158,286.542755 409.528198,292.483765 410.141876,300.611542 
	C410.675140,307.673920 406.815277,312.810944 403.838013,318.274994 
	C397.920898,329.134460 391.780457,339.902985 385.119171,350.316925 
	C379.322479,359.379150 371.031250,365.225616 358.980957,366.031006 
	C355.305756,365.977783 352.192139,366.694275 349.753815,365.720215 
	C340.583710,362.057098 331.982849,365.976501 323.166260,366.997498 
	C316.894958,364.616455 309.896576,363.278931 304.558167,359.559082 
	C299.285309,355.884857 294.949066,350.258911 291.515137,344.680756 
	C284.522980,333.322479 278.349854,321.455444 271.963348,309.730438 
	C267.158234,300.908691 270.512451,290.273834 278.937531,285.583466 
	C286.587128,281.324799 298.374542,284.648865 302.918701,292.928558 
	C309.581909,305.069214 315.848541,317.427490 322.665131,330.181396 
	C328.615051,341.329163 334.184021,351.988617 340.227753,363.556885 
	C345.288544,354.149231 349.803436,346.023834 354.042450,337.756927 
	C355.991730,333.955505 357.400085,329.876740 359.053772,325.923737 
z"/>
<path fill="#9F33D4" opacity="1.000000" stroke="none" 
	d="
M350.941895,159.731613 
	C356.639282,162.726044 358.794067,167.899765 358.934692,173.867020 
	C359.172577,183.959641 359.000000,194.061951 359.000000,205.653961 
	C365.288971,193.914627 371.160583,183.592514 376.414917,172.965195 
	C381.576141,162.526230 394.288879,158.655396 404.042297,165.957275 
	C409.306732,169.898483 412.518219,180.140854 409.057739,186.459641 
	C400.497284,202.090790 392.040283,217.843842 382.305420,232.739960 
	C377.173248,240.593140 368.104462,244.117981 358.526611,244.966888 
	C356.047150,245.186646 353.531921,245.003296 350.339874,244.720856 
	C346.446503,243.524384 343.246429,242.612183 339.984283,241.362595 
	C337.588074,236.815094 335.125916,232.669922 332.949188,228.379929 
	C329.514740,221.611130 326.272003,214.745071 322.948120,207.920181 
	C322.965424,197.332352 322.863800,186.742523 323.041168,176.157379 
	C323.162384,168.923279 325.702484,162.797577 333.049438,158.888748 
	C339.662170,156.065002 345.342834,157.147995 350.941895,159.731613 
z"/>
<path fill="#6A34BA" opacity="1.000000" stroke="none" 
	d="
M185.552521,487.029419 
	C182.249573,486.025085 179.402130,484.999573 176.227676,483.655212 
	C175.900650,483.336395 175.885620,483.072784 175.923767,482.704529 
	C176.720810,480.680389 177.517975,479.040833 178.231583,477.365662 
	C180.552643,471.917145 182.843124,466.455597 185.145386,460.999084 
	C194.435486,442.303619 203.898102,423.691193 212.948074,404.880219 
	C218.010437,394.357788 230.959351,392.043060 239.717880,397.926910 
	C245.778976,401.998718 249.147827,410.363007 246.049347,417.338654 
	C238.171082,435.075043 230.417740,452.944122 221.144470,469.958923 
	C213.908798,483.235107 201.161758,488.397278 185.552521,487.029419 
z"/>
<path fill="#6A34BA" opacity="1.000000" stroke="none" 
	d="
M332.963715,140.128052 
	C320.836884,142.912262 310.322418,139.528381 301.114319,131.584717 
	C293.078583,124.652481 289.373291,114.752090 284.036255,105.986809 
	C280.052490,99.444061 276.398987,92.700645 272.576080,86.059425 
	C268.579926,79.117203 267.750793,66.277206 278.312561,60.244404 
	C286.720428,55.441875 297.934113,58.542500 302.817139,67.502388 
	C309.373718,79.533012 315.805115,91.631859 322.640686,104.194534 
	C328.463715,115.028412 333.914398,125.381088 339.489197,135.666489 
	C339.712616,136.078766 341.112518,135.853363 341.974518,136.248199 
	C341.990845,137.002335 341.996918,137.433350 341.600159,137.876480 
	C338.452759,138.635086 335.708252,139.381561 332.963715,140.128052 
z"/>
<path fill="#6A34BA" opacity="1.000000" stroke="none" 
	d="
M322.611816,207.831635 
	C326.272003,214.745071 329.514740,221.611130 332.949188,228.379929 
	C335.125916,232.669922 337.588074,236.815094 339.634094,241.516403 
	C336.854797,243.011856 334.363617,244.016098 331.872437,245.020355 
	C323.950195,245.286804 315.775787,245.560043 309.056610,240.846710 
	C303.388336,236.870544 297.388275,232.417343 293.700104,226.763062 
	C285.630676,214.391998 278.503021,201.343658 271.818390,188.152512 
	C266.572083,177.799622 270.916473,168.541687 278.547638,164.368591 
	C288.978027,158.664780 299.632019,164.754898 303.161163,172.021835 
	C309.056152,184.160309 315.856354,195.859161 322.611816,207.831635 
z"/>
<path fill="#6A34BA" opacity="1.000000" stroke="none" 
	d="
M194.054016,152.923981 
	C199.802216,142.381729 205.817078,131.973618 211.210815,121.253044 
	C215.235291,113.254028 224.299652,108.936844 232.538849,110.722534 
	C241.239853,112.608307 249.534088,124.510185 243.985168,134.908691 
	C238.538452,145.115692 232.838089,155.188202 227.183548,165.283066 
	C224.877533,169.399933 222.646698,173.593109 219.952499,177.451950 
	C211.962723,188.895584 200.726303,193.736069 186.164536,192.912354 
	C183.210754,192.038956 181.028305,191.275681 178.863770,190.136246 
	C178.237152,189.167053 177.592606,188.573990 176.968460,187.731232 
	C177.009201,187.315765 177.029541,187.149994 177.261841,186.873322 
	C177.735474,186.557297 177.908813,186.293991 178.020645,185.652344 
	C178.395111,184.554520 178.742783,183.776855 179.455765,182.993988 
	C183.857574,181.682724 186.040985,179.424911 183.987839,174.622559 
	C185.023758,172.518860 186.012894,170.759735 187.351013,168.964935 
	C191.057220,166.857956 194.188187,164.678955 192.015930,159.590668 
	C192.725433,157.125702 193.389725,155.024841 194.054016,152.923981 
z"/>
<path fill="#6A34BA" opacity="1.000000" stroke="none" 
	d="
M342.002991,137.864349 
	C341.996918,137.433350 341.990845,137.002335 342.018127,135.897049 
	C343.704041,132.149506 345.356567,129.076248 347.376709,125.995010 
	C350.960266,124.627266 352.697632,122.593735 350.990021,118.620255 
	C352.056122,116.180901 353.074585,114.089989 354.457428,111.993607 
	C358.544250,110.514503 361.010803,108.399200 358.942352,103.578461 
	C358.991333,102.440811 359.022644,101.682518 359.053894,100.924232 
	C364.799805,90.385017 370.628967,79.890099 376.267609,69.293793 
	C381.636475,59.204472 390.534882,55.754963 400.252808,59.622509 
	C410.013489,63.507092 412.735962,75.237068 408.824066,82.729393 
	C400.472534,98.724617 391.485626,114.483368 381.455048,129.465973 
	C376.526886,136.827133 367.527740,139.897202 358.486145,140.962952 
	C356.351929,141.214508 354.163483,141.005447 351.400208,140.808380 
	C350.532715,140.377594 350.265015,140.146713 349.940308,139.582245 
	C348.868866,139.281479 347.854370,139.314270 346.477417,139.300293 
	C344.744324,138.790466 343.373688,138.327408 342.002991,137.864349 
z"/>
<path fill="#B6BA5E" opacity="1.000000" stroke="none" 
	d="
M185.087433,460.533234 
	C182.843124,466.455597 180.552643,471.917145 178.231583,477.365662 
	C177.517975,479.040833 176.720810,480.680389 175.615662,482.551758 
	C172.461792,476.509644 169.654175,470.252014 166.846558,463.994385 
	C166.894241,423.325592 166.941925,382.656769 167.111633,341.210876 
	C175.021194,332.136047 180.662064,332.334198 185.043182,341.059387 
	C185.038620,380.728729 185.034058,420.398041 185.087433,460.533234 
z"/>
<path fill="#6A34BA" opacity="1.000000" stroke="none" 
	d="
M175.962570,85.558693 
	C181.425812,73.482620 186.901810,61.412285 192.335983,49.323143 
	C193.007294,47.829697 193.455688,46.236053 194.029083,44.304085 
	C197.015930,38.032825 199.849899,32.075523 202.979324,26.277710 
	C206.907990,18.999134 216.776413,16.166779 225.221542,20.085711 
	C233.002686,23.696522 237.068436,32.983158 233.950699,41.161556 
	C230.128616,51.187645 226.532272,61.434715 221.390045,70.790207 
	C214.137604,83.984924 201.901581,89.466003 186.203400,88.841400 
	C182.281952,87.631561 179.122269,86.595123 175.962570,85.558693 
z"/>
<path fill="#9F33D4" opacity="1.000000" stroke="none" 
	d="
M350.610535,487.001740 
	C347.801819,485.592407 345.448059,484.182251 343.397766,482.198242 
	C346.185486,476.082672 348.669769,470.540924 351.154053,464.999176 
	C356.863342,453.776947 362.607910,442.572449 368.269135,431.326019 
	C371.883698,424.145386 377.636475,420.595947 385.649323,421.029083 
	C393.072510,421.430267 398.461029,425.407715 400.837616,432.182037 
	C402.106995,435.800476 402.414124,440.597626 401.117249,444.110199 
	C397.844391,452.974701 394.211731,461.905090 389.259857,469.903107 
	C382.309509,481.128967 371.927338,487.622589 358.055817,487.014709 
	C355.729980,486.912781 353.395813,487.000732 350.610535,487.001740 
z"/>
<path fill="#9F33D4" opacity="1.000000" stroke="none" 
	d="
M347.009094,126.002975 
	C345.356567,129.076248 343.704041,132.149506 342.007904,135.573914 
	C341.112518,135.853363 339.712616,136.078766 339.489197,135.666489 
	C333.914398,125.381088 328.463715,115.028412 322.968567,104.305702 
	C322.964081,93.280640 322.843384,82.634888 323.045837,71.995285 
	C323.196777,64.062149 326.167603,57.051434 333.891754,54.217960 
	C345.340027,50.018356 358.050781,54.515816 358.892487,69.568535 
	C359.458008,79.681648 359.005707,89.851677 359.031372,100.460236 
	C359.022644,101.682518 358.991333,102.440811 358.681213,103.787827 
	C356.965942,106.917397 355.529480,109.458237 354.093048,111.999084 
	C353.074585,114.089989 352.056122,116.180901 350.726135,118.824722 
	C349.279449,121.586075 348.144257,123.794525 347.009094,126.002975 
z"/>
<path fill="#9F33D4" opacity="1.000000" stroke="none" 
	d="
M359.031342,325.459900 
	C357.400085,329.876740 355.991730,333.955505 354.042450,337.756927 
	C349.803436,346.023834 345.288544,354.149231 340.227753,363.556885 
	C334.184021,351.988617 328.615051,341.329163 322.995972,330.296997 
	C322.963928,319.273102 322.810486,308.617859 323.059479,297.972046 
	C323.230286,290.670929 325.255920,284.061188 333.035217,280.132446 
	C339.635101,277.863556 345.345551,279.041565 351.026062,280.862823 
	C357.098022,285.068237 359.398743,290.833801 359.089569,298.195648 
	C358.714996,307.114532 359.005951,316.061340 359.031342,325.459900 
z"/>
<path fill="#9F33D4" opacity="1.000000" stroke="none" 
	d="
M177.049866,186.984222 
	C177.029541,187.149994 177.009201,187.315765 176.687759,187.848801 
	C174.685318,186.104050 172.613434,184.191605 171.348984,181.844238 
	C166.736404,173.281219 162.393326,164.573013 157.948700,155.919525 
	C157.965775,146.320648 157.927780,136.721268 158.017258,127.123070 
	C158.089569,119.367218 159.566437,112.136772 167.062210,107.065353 
	C173.827438,104.329071 179.843079,104.882591 185.831192,107.243874 
	C191.363419,110.512535 193.975586,115.438049 193.993347,121.784584 
	C194.021545,131.854996 194.006104,141.925522 194.031570,152.459991 
	C193.389725,155.024841 192.725433,157.125702 191.746765,159.799469 
	C189.955597,163.248459 188.478821,166.124527 187.002014,169.000610 
	C186.012894,170.759735 185.023758,172.518860 183.724670,174.827209 
	C181.973282,177.917358 180.531860,180.458282 179.090439,182.999207 
	C178.742783,183.776855 178.395111,184.554520 177.807602,185.763977 
	C177.299011,186.395462 177.126373,186.658279 177.049866,186.984222 
z"/>
<path fill="#9F33D4" opacity="1.000000" stroke="none" 
	d="
M194.031586,282.459686 
	C193.955719,283.743652 194.082840,284.681244 193.725708,285.366394 
	C187.928024,296.489471 182.068939,307.580566 176.223740,318.678894 
	C175.684860,318.780243 175.145966,318.881622 174.607071,318.983002 
	C169.086899,308.212311 163.566711,297.441650 157.996063,286.297516 
	C157.963745,275.979492 157.710709,266.024506 158.090790,256.093781 
	C158.366180,248.898087 159.034241,241.521637 167.358521,237.372131 
	C173.968048,234.590271 179.927200,235.075256 185.842621,237.472427 
	C191.426514,240.283081 193.800217,245.190933 193.934937,251.064407 
	C194.171310,261.370056 194.006180,271.684875 194.031586,282.459686 
z"/>
<path fill="#9F33D4" opacity="1.000000" stroke="none" 
	d="
M338.997559,484.778259 
	C336.838745,485.395355 334.679962,486.012451 332.233704,486.863953 
	C318.939453,488.009247 307.604889,484.013519 299.555817,473.763672 
	C294.359100,467.146149 290.492554,459.409729 286.577911,451.889465 
	C284.458527,447.817902 283.000580,443.244019 282.112030,438.726044 
	C280.707245,431.583191 287.101196,423.286011 293.875214,421.547791 
	C300.883698,419.749390 310.745392,421.690002 314.532684,428.967773 
	C320.044464,439.559479 325.670715,450.091583 331.610626,461.197968 
	C334.357086,467.044586 336.741089,472.342316 339.088257,478.097168 
	C339.033508,480.628906 339.015533,482.703613 338.997559,484.778259 
z"/>
<path fill="#B6BA5E" opacity="1.000000" stroke="none" 
	d="
M339.125061,477.640076 
	C336.741089,472.342316 334.357086,467.044586 331.909424,461.373230 
	C331.893707,435.995605 331.941650,410.991577 332.103821,385.205872 
	C334.788086,382.176697 337.252197,379.784698 339.995819,377.774048 
	C340.767395,377.208588 342.682312,377.302765 343.515350,377.887939 
	C346.165558,379.749573 348.553101,381.985199 351.042145,384.076294 
	C351.038635,410.740204 351.035126,437.404114 351.092834,464.533600 
	C348.669769,470.540924 346.185486,476.082672 343.437897,481.835663 
	C342.996979,482.036438 342.819366,482.026001 342.166626,481.748413 
	C340.835999,480.200897 339.980530,478.920471 339.125061,477.640076 
z"/>
<path fill="#A67348" opacity="1.000000" stroke="none" 
	d="
M351.368408,384.156433 
	C348.553101,381.985199 346.165558,379.749573 343.515350,377.887939 
	C342.682312,377.302765 340.767395,377.208588 339.995819,377.774048 
	C337.252197,379.784698 334.788086,382.176697 332.085602,384.741211 
	C325.278900,389.664612 318.604736,394.271088 311.818085,398.955200 
	C308.852173,395.108398 305.963837,391.200897 302.894318,387.441376 
	C301.045532,385.176971 301.252258,383.754456 303.705444,381.997223 
	C310.192902,377.350281 316.486572,372.432800 323.011841,367.310242 
	C331.982849,365.976501 340.583710,362.057098 349.753815,365.720215 
	C352.192139,366.694275 355.305756,365.977783 358.564453,366.092621 
	C365.282776,371.084808 371.552979,376.013062 377.804230,380.965240 
	C379.304901,382.154022 380.742645,383.422302 382.269501,384.704559 
	C378.461395,389.738098 374.942688,394.389069 371.220062,399.309601 
	C364.577484,394.181732 358.136078,389.209167 351.368408,384.156433 
z"/>
<path fill="#A67348" opacity="1.000000" stroke="none" 
	d="
M185.397232,341.043823 
	C180.662064,332.334198 175.021194,332.136047 167.093536,340.746246 
	C161.307953,345.203857 155.531799,349.186584 150.079285,353.571716 
	C147.802658,355.402740 146.312271,355.285095 144.717606,353.194427 
	C141.671127,349.200409 138.697144,345.151123 135.612900,341.017273 
	C143.603363,335.050995 151.161499,329.407501 158.849640,323.455444 
	C161.446594,322.820312 164.157135,323.041626 166.338043,322.071838 
	C175.505798,317.995209 184.194092,323.492096 193.578552,323.089996 
	C200.279282,328.083466 206.536880,333.021851 212.799591,337.953735 
	C214.078857,338.961151 215.377304,339.944183 216.936630,341.146423 
	C214.008118,345.239655 211.262024,349.176208 208.404968,353.030457 
	C206.938126,355.009308 205.471893,355.630280 203.061203,353.720367 
	C197.457077,349.280334 191.540970,345.234100 185.397232,341.043823 
z"/>
<path fill="#B6B95F" opacity="1.000000" stroke="none" 
	d="
M185.900314,236.965500 
	C179.927200,235.075256 173.968048,234.590271 167.553223,237.086365 
	C167.099304,222.718918 167.033401,208.328094 167.131409,193.162628 
	C171.145477,191.762802 174.995667,191.137589 178.845840,190.512390 
	C181.028305,191.275681 183.210754,192.038956 185.710190,192.970749 
	C186.004120,207.579025 185.981064,222.018799 185.900314,236.965500 
z"/>
<path fill="#B6B95F" opacity="1.000000" stroke="none" 
	d="
M351.016418,280.404480 
	C345.345551,279.041565 339.635101,277.863556 333.347290,279.987793 
	C332.618073,271.731110 332.279327,263.546326 332.015015,255.359192 
	C331.913879,252.226044 331.982849,249.087387 331.923340,245.485794 
	C334.363617,244.016098 336.854797,243.011856 339.696167,241.853790 
	C343.246429,242.612183 346.446503,243.524384 349.885895,244.731766 
	C350.416779,254.688080 350.717804,264.348938 350.992188,274.010590 
	C351.048340,275.987640 351.004517,277.967560 351.016418,280.404480 
z"/>
<path fill="#B6B95F" opacity="1.000000" stroke="none" 
	d="
M185.895447,106.759682 
	C179.843079,104.882591 173.827438,104.329071 167.369095,106.914940 
	C166.972153,101.216034 166.969330,95.571114 166.903168,89.461449 
	C169.627426,87.921829 172.415039,86.846939 175.582611,85.665375 
	C179.122269,86.595123 182.281952,87.631561 185.753052,88.879486 
	C186.029541,94.819153 185.994614,100.547318 185.895447,106.759682 
z"/>
<path fill="#B6B95F" opacity="1.000000" stroke="none" 
	d="
M341.600159,137.876480 
	C343.373688,138.327408 344.744324,138.790466 346.744751,139.494507 
	C348.248779,139.795624 349.123047,139.855728 349.997284,139.915833 
	C350.265015,140.146713 350.532715,140.377594 350.947876,140.830124 
	C351.058838,146.981140 351.022339,152.910492 350.963867,159.285736 
	C345.342834,157.147995 339.662170,156.065002 333.395142,158.800476 
	C333.007690,152.883835 332.999084,146.964615 332.977112,140.586731 
	C335.708252,139.381561 338.452759,138.635086 341.600159,137.876480 
z"/>
<path fill="#9F33D4" opacity="1.000000" stroke="none" 
	d="
M166.548523,463.822144 
	C169.654175,470.252014 172.461792,476.509644 175.577515,482.920044 
	C175.885620,483.072784 175.900650,483.336395 175.884003,483.465912 
	C173.024475,484.548401 170.181595,485.501373 167.109619,486.743561 
	C159.187546,486.828278 151.557556,487.487671 144.143021,483.790619 
	C136.061142,479.760803 130.386276,473.683441 126.574661,465.945068 
	C119.560432,451.704712 113.131485,437.177124 106.345695,422.822632 
	C103.852303,417.548187 103.056046,412.212585 104.812057,406.612000 
	C107.176971,399.069458 112.768097,395.631104 120.265442,395.037109 
	C128.384567,394.393921 134.163208,398.281586 137.666107,405.333954 
	C147.296082,424.722015 156.735611,444.204681 166.548523,463.822144 
z"/>
<path fill="#6A34BA" opacity="1.000000" stroke="none" 
	d="
M178.863770,190.136230 
	C174.995667,191.137589 171.145477,191.762802 167.075470,192.697449 
	C156.773132,193.714996 146.990875,192.462357 139.015411,185.852402 
	C134.546890,182.148941 130.425125,177.572372 127.453705,172.607269 
	C120.186409,160.463989 113.550529,147.934174 106.909615,135.427673 
	C102.376266,126.890221 105.489563,116.532005 113.914970,112.073532 
	C122.339043,107.615761 132.726288,110.663673 137.038025,118.323784 
	C141.673401,126.558884 146.126389,134.896912 150.632370,143.204453 
	C152.882446,147.352859 155.073196,151.533447 157.619736,155.809509 
	C162.393326,164.573013 166.736404,173.281219 171.348984,181.844238 
	C172.613434,184.191605 174.685318,186.104050 176.667374,188.098495 
	C177.592606,188.573990 178.237152,189.167053 178.863770,190.136230 
z"/>
<path fill="#9F33D4" opacity="1.000000" stroke="none" 
	d="
M339.088257,478.097168 
	C339.980530,478.920471 340.835999,480.200897 341.899902,481.738770 
	C341.296234,482.899780 340.484100,483.803284 339.334778,484.742554 
	C339.015533,482.703613 339.033508,480.628906 339.088257,478.097168 
z"/>
<path fill="#6A34BA" opacity="1.000000" stroke="none" 
	d="
M179.455765,182.993988 
	C180.531860,180.458282 181.973282,177.917358 183.677887,175.171783 
	C186.040985,179.424911 183.857574,181.682724 179.455765,182.993988 
z"/>
<path fill="#6A34BA" opacity="1.000000" stroke="none" 
	d="
M187.351013,168.964935 
	C188.478821,166.124527 189.955597,163.248459 191.701569,160.163574 
	C194.188187,164.678955 191.057220,166.857956 187.351013,168.964935 
z"/>
<path fill="#6A34BA" opacity="1.000000" stroke="none" 
	d="
M177.261841,186.873322 
	C177.126373,186.658279 177.299011,186.395462 177.780807,186.084152 
	C177.908813,186.293991 177.735474,186.557297 177.261841,186.873322 
z"/>
<path fill="#6A34BA" opacity="1.000000" stroke="none" 
	d="
M354.457428,111.993614 
	C355.529480,109.458237 356.965942,106.917397 358.663513,104.167191 
	C361.010803,108.399200 358.544250,110.514503 354.457428,111.993614 
z"/>
<path fill="#6A34BA" opacity="1.000000" stroke="none" 
	d="
M347.376709,125.995003 
	C348.144257,123.794525 349.279449,121.586075 350.678467,119.173164 
	C352.697632,122.593735 350.960266,124.627266 347.376709,125.995003 
z"/>
<path fill="#6A34BA" opacity="1.000000" stroke="none" 
	d="
M349.940308,139.582245 
	C349.123047,139.855728 348.248779,139.795624 347.107208,139.541290 
	C347.854370,139.314270 348.868866,139.281479 349.940308,139.582245 
z"/>
</svg>